<svg xmlns="http://www.w3.org/2000/svg" version="1.1" xmlns:xlink="http://www.w3.org/1999/xlink" xmlns:svgjs="http://svgjs.dev/svgjs" viewBox="0 0 800 800"><g transform="matrix(1,0,0,1,0,0)"><path d="M627.2265053583837 409.7306337890284C630.7991438426159 407.6683415030431 635.2008561573841 407.6683415030431 638.7734946416163 409.7312111384926L702.2265101508353 446.3657666879401C705.7991486350675 448.42805897392543 708.0000047924516 452.24029748578465 708.0000047924516 456.3654594072195V529.6345705061144C708.0000047924516 533.7597324275494 705.7991486350675 537.5719709394085 702.2265101508353 539.634840574858L638.7734946416163 576.2693961243056C635.2008561573841 578.3316884102908 630.7991438426159 578.3316884102908 627.2265053583837 576.2688187748414L563.7734898491647 539.6342632253939C560.2008513649325 537.5719709394085 557.9999952075484 533.7597324275494 557.9999952075484 529.6345705061144V456.3654594072195C557.9999952075484 452.24029748578465 560.2008513649325 448.42805897392543 563.7734898491647 446.36518933847594L627.2265053583837 409.7306337890284Z " stroke-width="4" stroke="#ff3895" fill="none" opacity="0.1" transform="rotate(100, 400, 400)"></path><path d="M603.3491558942221 392.1036773315055C607.2790582268775 389.83515581692166 612.1209417731226 389.83515581692166 616.050844105778 392.10431241591607L685.849161165919 432.4023235203083C689.7790634985743 434.6708450348922 692.2000052716968 438.8643073979373 692.2000052716968 443.4019855115156V523.9980077203002C692.2000052716968 528.5356858338785 689.7790634985743 532.7291481969235 685.849161165919 534.998304795918L616.050844105778 575.2963159003102C612.1209417731226 577.5648374148941 607.2790582268775 577.5648374148941 603.3491558942221 575.2956808158997L533.5508388340811 534.9976697115073C529.6209365014258 532.7291481969235 527.1999947283033 528.5356858338785 527.1999947283033 523.9980077203002V443.4019855115156C527.1999947283033 438.8643073979373 529.6209365014258 434.6708450348922 533.5508388340811 432.40168843589777L603.3491558942221 392.1036773315055Z " stroke-width="5.2" stroke="#f447a3" fill="none" opacity="0.19" transform="rotate(90, 400, 400)"></path><path d="M579.4718064300605 374.47674376216617C583.758972611139 372.00199301898374 589.0410273888609 372.00199301898374 593.3281935699395 374.4774365815231L669.4718121810024 418.43890324086016C673.7589783620809 420.9136539840425 676.4000057509419 425.4883401982736 676.4000057509419 430.43853450399536V518.3614678226694C676.4000057509419 523.3116621283912 673.7589783620809 527.8863483426222 669.4718121810024 530.3617919051616L593.3281935699395 574.3232585644986C589.0410273888609 576.798009307681 583.758972611139 576.798009307681 579.4718064300605 574.3225657451417L503.32818781899755 530.3610990858047C499.041021637919 527.8863483426222 496.39999424905807 523.3116621283912 496.39999424905807 518.3614678226694V430.43853450399536C496.39999424905807 425.4883401982736 499.041021637919 420.9136539840425 503.32818781899755 418.4382104215032L579.4718064300605 374.47674376216617Z " stroke-width="6.4" stroke="#e954af" fill="none" opacity="0.28" transform="rotate(80, 400, 400)"></path><path d="M555.5944569658989 356.8498178222213C560.2388869954007 354.16883785044047 565.9611130045994 354.16883785044047 570.6055430341012 356.85056837652473L653.094463196086 404.47549059080654C657.7388932255877 407.15647056258746 660.6000062301871 412.1123806280044 660.6000062301871 417.4750911258697V512.7249355544333C660.6000062301871 518.0876460522985 657.7388932255877 523.0435561177155 653.094463196086 525.7252866437998L570.6055430341012 573.3502088580815C565.9611130045994 576.0311888298625 560.2388869954007 576.0311888298625 555.5944569658989 573.3494583037782L473.10553680391405 525.7245360894964C468.4611067744123 523.0435561177155 465.59999376981295 518.0876460522985 465.59999376981295 512.7249355544333V417.4750911258697C465.59999376981295 412.1123806280044 468.4611067744123 407.15647056258746 473.10553680391405 404.47474003650314L555.5944569658989 356.8498178222213Z " stroke-width="7.6" stroke="#dd5fbb" fill="none" opacity="0.37" transform="rotate(70, 400, 400)"></path><path d="M531.7171075017372 339.2228613646984C536.7188013796622 336.33565216431896 542.8811986203377 336.33565216431896 547.8828924982627 339.22366965394826L636.7171142111695 390.51204742317475C641.7188080890944 393.3992566235542 644.8000067094322 398.73639054015706 644.8000067094322 404.5116172301658V507.08837276861885C644.8000067094322 512.8635994586277 641.7188080890944 518.2007333752306 636.7171142111695 521.0887508648598L547.8828924982627 572.3771286340864C542.8811986203377 575.2643378344658 536.7188013796622 575.2643378344658 531.7171075017372 572.3763203448365L442.88288578883044 521.08794257561C437.8811919109055 518.2007333752306 434.7999932905677 512.8635994586277 434.7999932905677 507.08837276861885V404.5116172301658C434.7999932905677 398.73639054015706 437.8811919109055 393.3992566235542 442.88288578883044 390.51123913392496L531.7171075017372 339.2228613646984Z " stroke-width="8.8" stroke="#d169c6" fill="none" opacity="0.45999999999999996" transform="rotate(60, 400, 400)"></path><path d="M507.8397580375756 321.59592779535905C513.1987157639238 318.50248936638104 519.8012842360762 318.50248936638104 525.1602419624244 321.5967938195553L620.3397652262531 376.54862714372655C625.6987229526012 379.64206557270455 629.0000071886774 385.36042334049336 629.0000071886774 391.5481662226456V501.45183287098814C629.0000071886774 507.6395757531404 625.6987229526012 513.3579335209292 620.3397652262531 516.4522379741034L525.1602419624244 571.4040712982746C519.8012842360762 574.4975097272527 513.1987157639238 574.4975097272527 507.8397580375756 571.4032052740785L412.66023477374694 516.4513719499072C407.30127704739874 513.3579335209292 403.9999928113226 507.6395757531404 403.9999928113226 501.45183287098814V391.5481662226456C403.9999928113226 385.36042334049336 407.30127704739874 379.64206557270455 412.66023477374694 376.5477611195303L507.8397580375756 321.59592779535905Z " stroke-width="10" stroke="#c472d1" fill="none" opacity="0.5499999999999999" transform="rotate(50, 400, 400)"></path><path d="M483.962408573414 303.9689865966252C489.6786301481854 300.66931893904865 496.7213698518146 300.66931893904865 502.437591426586 303.96991035576787L603.9624162413365 362.5851992348839C609.678637816108 365.88486689246037 613.2000076679226 371.9844485114351 613.2000076679226 378.5847075857308V495.81528534396284C613.2000076679226 502.41554441825855 609.678637816108 508.5151260372333 603.9624162413365 511.81571745395246L502.437591426586 570.4310063330686C496.7213698518146 573.7306739906451 489.6786301481854 573.7306739906451 483.962408573414 570.4300825739258L382.4375837586634 511.8147936948098C376.721362183892 508.5151260372333 373.19999233207744 502.41554441825855 373.19999233207744 495.81528534396284V378.5847075857308C373.19999233207744 371.9844485114351 376.721362183892 365.88486689246037 382.4375837586634 362.5842754757412L483.962408573414 303.9689865966252Z " stroke-width="11.2" stroke="#b57adb" fill="none" opacity="0.64" transform="rotate(40, 400, 400)"></path><path d="M460.08505910925237 286.34203776849677C466.15854453244697 282.83614088232173 473.641455467553 282.83614088232173 479.7149408907476 286.3430192625858L587.5850672564201 348.6217636966466C593.6585526796147 352.12766058282165 597.4000081471677 358.6084660529823 597.4000081471677 365.62124131942153V490.17873018754307C597.4000081471677 497.19150545398224 593.6585526796147 503.67231092414295 587.5850672564201 507.17918930440703L479.7149408907476 569.4579337384678C473.641455467553 572.9638306246428 466.15854453244697 572.9638306246428 460.08505910925237 569.4569522443787L352.2149327435799 507.17820781031793C346.1414473203852 503.67231092414295 342.3999918528323 497.19150545398224 342.3999918528323 490.17873018754307V365.62124131942153C342.3999918528323 358.6084660529823 346.1414473203852 352.12766058282165 352.2149327435799 348.6207822025575L460.08505910925237 286.34203776849677Z " stroke-width="12.4" stroke="#a682e4" fill="none" opacity="0.73" transform="rotate(30, 400, 400)"></path><path d="M436.2077096450908 268.71510419915745C442.6384589167086 265.00297808438387 450.56154108329144 265.00297808438387 456.99229035490924 268.71614342819294L571.2077182715037 334.65834341719847C577.6384675431215 338.37046953197205 581.6000086264129 345.2324988533186 581.6000086264129 352.6577903119013V484.54219028991236C581.6000086264129 491.96748174849506 577.6384675431215 498.8295110698416 571.2077182715037 502.5426764136506L456.99229035490924 568.4848764026561C450.56154108329144 572.1970025174297 442.6384589167086 572.1970025174297 436.2077096450908 568.4838371736207L321.9922817284964 502.5416371846152C315.5615324568785 498.8295110698416 311.59999137358716 491.96748174849506 311.59999137358716 484.54219028991236V352.6577903119013C311.59999137358716 345.2324988533186 315.5615324568785 338.37046953197205 321.9922817284964 334.657304188163L436.2077096450908 268.71510419915745Z " stroke-width="13.6" stroke="#9589ee" fill="none" opacity="0.82" transform="rotate(20, 400, 400)"></path><path d="M412.3303601809291 251.08818588860714C419.1183733009701 247.16983054523504 427.4816266990298 247.16983054523504 434.2696398190708 251.08928285258906L554.8303692865871 320.6949383965393C561.6183824066281 324.61329373991146 565.800009105658 331.85654691244395 565.800009105658 339.6943545631701V478.9056656510706C565.800009105658 486.7434733017968 561.6183824066281 493.98672647432926 554.8303692865871 497.9061787816833L434.2696398190708 567.5118343256336C427.4816266990298 571.4301896690056 419.1183733009701 571.4301896690056 412.3303601809291 567.5107373616515L291.76963071341277 497.90508181770144C284.9816175933717 493.98672647432926 280.79999089434193 486.7434733017968 280.79999089434193 478.9056656510706V339.6943545631701C280.79999089434193 331.85654691244395 284.9816175933717 324.61329373991146 291.76963071341277 320.69384143255746L412.3303601809291 251.08818588860714Z " stroke-width="14.799999999999999" stroke="#8290f6" fill="none" opacity="0.9099999999999999" transform="rotate(10, 400, 400)"></path><path d="M388.4530107167675 233.46125231926777C395.59828768523175 229.33666774729716 404.40171231476825 229.33666774729716 411.5469892832325 233.46240701819613L538.4530203016707 306.7315181170911C545.5982972701349 310.8561026890618 550.0000095849032 318.48057971278024 550.0000095849032 326.7309035556499V473.2691257534399C550.0000095849032 481.5194495963096 545.5982972701349 489.14392662002797 538.4530203016707 493.26966589092694L411.5469892832325 566.538776989822C404.40171231476825 570.6633615617925 395.59828768523175 570.6633615617925 388.4530107167675 566.5376222908938L261.54697969832927 493.26851119199864C254.401702729865 489.14392662002797 249.99999041509682 481.5194495963096 249.99999041509682 473.2691257534399V326.7309035556499C249.99999041509682 318.48057971278024 254.401702729865 310.8561026890618 261.54697969832927 306.7303634181629L388.4530107167675 233.46125231926777Z " stroke-width="16" stroke="#6b97ff" fill="none" opacity="0.9999999999999999" transform="rotate(0, 400, 400)"></path></g></svg>